<?xml version="1.0" encoding="utf-8"?>
<!-- Svg Vector Icons : http://www.onlinewebfonts.com/icon -->
<!DOCTYPE svg PUBLIC "-//W3C//DTD SVG 1.1//EN" "http://www.w3.org/Graphics/SVG/1.1/DTD/svg11.dtd">
<svg version="1.1" xmlns="http://www.w3.org/2000/svg" xmlns:xlink="http://www.w3.org/1999/xlink" x="0px" y="0px" viewBox="0 0 1000 1000" enable-background="new 0 0 1000 1000" xml:space="preserve">
<metadata> Svg Vector Icons : http://www.onlinewebfonts.com/icon </metadata>
<g><g transform="translate(0.000000,511.000000) scale(0.100000,-0.100000)"><path d="M3906.3,4716.3c-82.5-32.1-169.7-91.7-254.5-176.6c-167.4-167.4-233.9-332.5-233.9-580.1c-2.3-261.4,75.7-403.5,378.3-697.1c380.6-369.2,853-726.8,1114.4-843.8c94-43.6,98.6-43.6,192.6,0c261.4,117,733.7,474.6,1114.4,843.8c304.9,298.1,382.9,440.2,382.9,713.1c0,162.8-9.2,201.8-75.6,337.1c-91.7,185.7-254.6,341.6-431.1,405.8c-151.3,57.3-428.8,64.2-596.2,13.8c-227-66.5-424.2-249.9-460.9-426.5c-16-80.2-36.7-66.5-73.4,52.8c-39,116.9-188,263.7-341.6,334.8C4435.9,4778.2,4092,4789.6,3906.3,4716.3z"/><path d="M3264.3,2265.1C1510.2,2159.6,95.4,632.6,100-1149.1c4.6-1770.2,1410.2-3276.6,3164.2-3389c836.9-55,1611.9,167.4,2265.4,646.6c243,178.8,612.2,557.2,775,793.3c802.5,1169.4,834.6,2636.9,82.6,3801.7l-107.8,165.1L6176.3,855c-208.6-29.8-600.7-176.5-720-266c-41.3-32.1-36.7-41.3,87.1-204.1c373.8-488.4,564.1-1162.5,497.6-1765.6c-66.5-619.1-298.1-1100.6-745.2-1547.7c-240.8-238.4-382.9-343.9-648.9-479.2c-1405.6-713.1-3194,91.7-3586.1,1611.9C765-646.9,1283.2,540.8,2324.2,1104.9c288.9,158.2,772.7,291.2,1045.6,291.2c96.3,0,107.8,9.2,277.4,185.7c183.4,192.6,426.5,399,598.4,513.6c121.5,80.3,110.1,87.1-190.3,135.3C3766.4,2274.3,3566.9,2283.5,3264.3,2265.1z"/><path d="M6206.1,2267.4C3988.8,2077.1,2528.2-190.6,3278-2277.2c78-215.5,190.3-440.2,337.1-678.7c133-213.2,107.8-204.1,417.3-126.1c137.6,36.7,561.8,222.4,561.8,245.3c0,6.9-61.9,98.6-139.9,201.8c-745.2,1006.6-637.4,2403,259.1,3292.6c311.8,309.6,603,490.7,999.7,623.7c282,91.7,529.7,123.8,885.1,107.8c653.5-27.5,1235.9-282,1703.7-740.6c839.2-827.7,974.5-2159.9,318.7-3173.4c-139.9-215.5-456.3-541.2-669.5-687.9c-357.7-247.6-807.1-412.7-1219.8-447.1l-190.3-18.3l-245.3-243.1c-135.3-133-332.5-305-435.7-380.6c-220.1-158.2-227-151.3,160.5-208.6c334.8-48.2,898.8-32.1,1190,34.4c671.8,153.6,1203.8,447.1,1683,928.6c515.9,515.9,804.8,1047.9,953.9,1756.4c41.3,194.9,50.5,318.7,52.8,642c0,460.9-34.4,699.3-160.5,1077.7C9239.6,1430.5,7772.1,2402.7,6206.1,2267.4z"/></g></g>
</svg>